<?xml version="1.0" encoding="utf-8"?>
<!-- Generator: Adobe Illustrator 25.0.1, SVG Export Plug-In . SVG Version: 6.00 Build 0)  -->
<svg version="1.0" id="Ebene_1" xmlns="http://www.w3.org/2000/svg" xmlns:xlink="http://www.w3.org/1999/xlink" x="0px" y="0px"
	 viewBox="0 0 742 546" style="enable-background:new 0 0 742 546;" xml:space="preserve">
<style type="text/css">
	.st0{fill:url(#SVGID_1_);}
	.st1{fill:#FFFFFF;}
	.st2{fill:none;stroke:#FFFFFF;stroke-width:6.372;}
	.st3{fill:#00A6E6;}
	.st4{fill:#81CFF4;}
</style>
<g>
	<g>
		
			<image style="overflow:visible;opacity:0.5;enable-background:new    ;" width="591" height="234" xlink:href="F038E49B.png"  transform="matrix(0.9957 0 0 0.9957 75.3395 158.5767)">
		</image>
		<g>
			<g>
				
					<linearGradient id="SVGID_1_" gradientUnits="userSpaceOnUse" x1="369.7775" y1="152.1396" x2="369.7775" y2="423.4289" gradientTransform="matrix(1 0 0 -1 0 548)">
					<stop  offset="0.1044" style="stop-color:#0093D5"/>
					<stop  offset="0.289" style="stop-color:#46B1E1"/>
					<stop  offset="0.4795" style="stop-color:#87CCEB"/>
					<stop  offset="0.6529" style="stop-color:#BBE2F4"/>
					<stop  offset="0.803" style="stop-color:#E0F2FA"/>
					<stop  offset="0.9237" style="stop-color:#F7FBFE"/>
					<stop  offset="1" style="stop-color:#FFFFFF"/>
				</linearGradient>
				<path class="st0" d="M306.9,364.3c-8.9,0-16.2-2.3-21.5-6.7c-4-3.4-8.8-9.7-8.8-21.1c0-3.1,0.3-6.3,1-9.5c0.1-0.5,0.2-1,0.3-1.5
					c-1.2,1.6-2.5,3.2-3.8,4.8c-2.6,3.2-5.5,6.3-8.6,9.3c-3.1,3.1-6.4,5.9-9.7,8.6c-3.4,2.7-6.9,5.1-10.3,7.2
					c-3.6,2.2-7.2,3.9-10.7,5.2c-4,1.5-7.8,2.2-11.4,2.2c-4.2,0-7.9-0.5-11.1-1.5c-3.7-1.2-6.9-3.1-9.3-5.8c-2.1-2.3-3.7-5-4.7-8.1
					c-3.1,2.4-6.1,4.5-8.9,6.3c-3.3,2.1-6.5,3.8-9.6,5c-3.7,1.5-7.1,2.2-10.3,2.2c-3.3,0-6.3-0.4-9.1-1.2c-3.5-1-6.6-2.8-9.1-5.3
					c-0.9-0.9-1.8-2-2.6-3.2c-0.4,0.3-0.7,0.7-1.1,1c-3.1,2.7-6.3,4.7-9.5,5.9c-3.2,1.2-6.3,1.7-9.3,1.7c-4.6,0-8.9-1-12.8-2.9
					c-4-1.9-7.4-4.8-10.3-8.5c-2.6-3.5-4.7-7.7-6.1-12.6c-1.3-4.7-2-10-2-15.9c0-6.4,0.8-12.8,2.4-19c1.6-6.1,3.8-12.1,6.5-17.7
					c2.7-5.6,5.9-10.8,9.6-15.7c3.7-4.9,7.6-9.2,11.8-12.8c4.3-3.8,8.9-6.8,13.6-9c4.2-2,8.4-3.1,12.6-3.5l0.3-6.1l2.1-2.4
					c1.9-2.2,4.3-3.7,7.2-4.7c2.3-0.8,4.8-1.2,7.4-1.2c5,0,9.5,0.8,13.4,2.4c3.9,1.6,7.2,3.6,10,6c2.9,2.6,5.1,5.5,6.6,8.7
					c1.6,3.4,2.4,6.8,2.4,10.1c0,1.9-0.2,4.2-0.6,7.3c-0.4,3-1.1,6.3-2.2,9.9c-1.9,6.8-3.5,12.9-4.9,18.3c-1.3,5.2-2.4,9.7-3.3,13.6
					c-0.2,1.1-0.5,2.2-0.7,3.2c1.7-1.7,3.6-3.7,5.7-6c1.5-1.7,3.3-3.8,5.2-6.4c-0.2-2.1-0.3-4.2-0.3-6.2c0-3.3,0.7-6.8,2.1-10.5
					c1.3-3.3,2.9-6.6,5-9.8c2-3.1,4.3-6.1,6.9-9c2.6-2.9,5.4-5.5,8.3-7.8c3.1-2.4,6.2-4.4,9.4-5.9c3.8-1.8,7.5-2.6,11.1-2.6
					c0.2,0,0.4,0,0.6,0c-2.3-1.3-4.3-3.1-6.1-5.2c-2-2.5-3.6-5.6-4.7-9.1c-1-3.2-1.5-7-1.5-11.1c0-4.9,0.3-9.3,0.8-12.9
					c0.6-4,1.5-7.3,2.8-10.1c1.7-3.5,3.9-6.2,6.7-8c2.8-1.8,6.1-2.7,9.6-2.7c2.5,0,5,0.4,7.4,1.2c2.1,0.7,4.2,1.7,6.2,2.9
					c1.9,1.2,3.8,2.5,5.4,4.1c1.7,1.6,3.1,3.2,4.4,4.9c1.3,1.8,2.4,3.7,3.2,5.6c1,2.3,1.5,4.7,1.5,7.1c0,2.3-0.4,4.7-1.2,7.3
					c-0.7,2.3-1.8,4.8-3.3,7.6c-1.4,2.6-3.1,5.4-5.2,8.4c-2.1,3-4.5,6.2-7.4,9.7l-2.7,3.3c0,0-4.4,0-4.5,0c2.1,1.3,3.8,3.1,5.1,5.1
					c1.5,2.4,2.4,5.1,2.7,8.2c0.2,1.4,0.3,3,0.3,4.6c0.2-0.7,0.5-1.3,0.8-2c1.5-3.5,3.4-7,5.7-10.2c2.2-3.2,4.8-6.3,7.7-9.2
					c2.9-2.9,5.9-5.4,8.9-7.6c3.2-2.3,6.3-4.1,9.5-5.5c3.8-1.7,7.3-2.5,10.7-2.5c2.7,0,5.3,0.3,7.6,1c2.7,0.8,5,1.9,7,3.3
					c2.2,1.6,3.9,3.6,5.2,6c1.3,2.5,2,5.3,2,8.3c0,2.5-0.4,5-1.1,7.2l-1.1,3.5l-3.1,1.7c1.8,0.6,3.4,1.2,4.8,1.8
					c2.8,1.2,5.1,2.6,7,4.1c2.4,2,4.1,4.3,5.1,6.8c0.8,2.1,1.2,4.4,1.2,6.9c0,3.4-0.8,7.1-2.3,10.9c-1.2,2.9-2.8,6.3-4.7,10.2
					c-1.1,2.2-2.2,4.6-3.5,7.4c-0.8,1.9-1.6,3.7-2.3,5.4c0.2-0.2,0.3-0.3,0.5-0.5c1.9-1.7,3.8-3.7,5.8-6c1.5-1.7,3.1-3.5,4.6-5.5
					c0.2-3.1,0.5-6.1,0.8-9c0.9-7.6,2.2-15.2,3.8-22.6c1.6-7.4,3.6-14.8,5.9-22c2.3-7.1,4.9-14,7.6-20.4c2.8-6.5,5.9-12.6,9.2-18
					c3.4-5.6,7-10.6,10.7-14.7c3.9-4.4,8.1-7.9,12.5-10.5c5-2.9,10.1-4.4,15.3-4.4c3.2,0,6.2,0.4,8.9,1.3c3.1,1,5.8,2.6,8,4.8
					c2.3,2.2,4,5,5.1,8.2c1,2.9,1.5,6.1,1.5,9.9c0,2.2-0.3,4.7-1,7.3c-0.6,2.4-1.5,5.1-2.8,8.3c-1.2,2.9-2.8,6.1-4.7,9.7
					c-1.9,3.5-4.2,7.5-6.9,11.9c-0.3,0.5-0.6,1-1,1.6c1.2-0.2,2.5-0.2,3.8-0.2c11.1,0,17.4,5.1,20.7,9.3c2.3,2.9,3.9,6.4,5,10.7
					c1.4-1.9,2.9-3.8,4.5-5.6c2.6-2.9,5.4-5.6,8.3-7.9c3.1-2.4,6.2-4.4,9.4-5.9c3.8-1.8,7.5-2.7,11.1-2.7c2.8,0,5.1,0.3,7.2,0.8
					c2.9,0.8,5.3,2.2,7.1,4.2c1.8,1.9,3,4.2,3.6,6.9c0.2,0.6,0.3,1.2,0.4,1.9c4.2-3.5,8.2-6.1,12-7.8c4.3-1.9,8.2-2.8,11.9-2.8
					c3.7,0,7.1,0.6,10.2,1.8c3.2,1.3,5.9,3.1,8.1,5.5c2.2,2.4,3.8,5.1,4.8,8.1c0.6,1.6,0.9,3.3,1.2,5.1c1.4-5.6,2.9-11.1,4.6-16.5
					c2.3-7.1,4.8-14,7.6-20.4c2.8-6.5,5.9-12.5,9.2-18c3.4-5.6,7-10.6,10.7-14.7c4-4.4,8.2-7.9,12.5-10.5c5-2.9,10.1-4.4,15.3-4.4
					c3.2,0,6.2,0.4,8.9,1.3c3.1,1,5.8,2.6,8,4.8c2.3,2.2,4,4.9,5.1,8.2c1,2.9,1.5,6.2,1.5,9.9c0,2.2-0.3,4.7-1,7.3
					c-0.6,2.5-1.5,5.2-2.8,8.3c-1.2,2.9-2.8,6.1-4.7,9.7c-1.9,3.5-4.2,7.5-6.9,11.9c-0.3,0.5-0.6,1-1,1.6c1.2-0.2,2.5-0.2,3.8-0.2
					c11.1,0,17.4,5.1,20.7,9.3c4.3,5.5,6.4,13.4,6.4,24.1c0,4.8-0.5,9.9-1.5,15c-1,5-2.3,10.1-4.1,15c-1.7,4.9-3.8,9.8-6.3,14.5
					c-2.4,4.7-5.2,9.2-8.2,13.5c-3,4.3-6.3,8.2-9.8,11.8c-3.6,3.7-7.3,6.9-11.3,9.6c-4,2.8-8.3,5-12.6,6.6
					c-4.6,1.7-9.4,2.6-14.1,2.6c-5.8,0-11.1-1.1-15.7-3.2c-4.9-2.3-9.1-5.7-12.3-10.3c-1.3-1.9-2.5-3.9-3.5-6.2
					c-2.1,1.8-4.2,3.5-6.4,5.2c-3.5,2.7-7.1,5.1-10.6,7.2c-3.7,2.2-7.3,3.9-10.9,5.2c-4,1.4-7.9,2.2-11.5,2.2
					c-4.2,0-7.9-0.5-11.1-1.5c-3.7-1.2-6.9-3.1-9.3-5.8c-1.1-1.2-2.1-2.5-2.9-4l-0.1,1.1l-2.5,2.5c-0.9,0.9-1.8,1.6-2.6,2.3
					c-1.3,0.9-2.7,1.6-4.2,2.2c-1.3,0.4-2.7,0.7-4.3,0.9c-1.3,0.1-2.7,0.2-4.2,0.2c-4.6,0-8.9-1-12.8-3.1c-3.7-1.9-7-4.5-9.7-7.7
					c-2.6-3.1-4.7-6.7-6.2-10.8c-1.4-4-2.2-8.2-2.3-12.5l0-0.2c0-1.1,0-2.1,0.1-3.2c-1.8,3.1-3.7,6.2-5.8,9.1
					c-3,4.2-6.3,8.2-9.8,11.8c-3.6,3.7-7.4,6.9-11.3,9.6c-4,2.8-8.3,5-12.6,6.6c-4.6,1.7-9.4,2.6-14.1,2.6c-5.8,0-11.1-1.1-15.7-3.2
					c-4.9-2.3-9.1-5.7-12.3-10.3c-1.2-1.7-2.3-3.6-3.2-5.6c-2.1,1.9-4.2,3.7-6.4,5.4c-3.6,2.8-7.2,5.4-10.8,7.5
					c-3.7,2.2-7.3,4.1-10.9,5.4C314.5,363.6,310.6,364.3,306.9,364.3z M393.1,286c-0.1,0.9-0.2,1.7-0.3,2.6
					c-0.3,3.5-0.6,6.5-0.7,9.3c-0.2,2.8-0.3,5.1-0.3,6.9c0,2.3,0,4.4,0,6.3c0.1-0.2,0.2-0.4,0.3-0.6c1.1-2,2.2-4.1,3.1-6.3
					c0.9-2.2,1.6-4.5,2.1-6.7c0.5-2,0.7-3.9,0.7-5.7c0-1.9-0.1-3-0.3-3.7c0-0.2-0.1-0.3-0.1-0.3c-0.1,0-0.2-0.1-0.3-0.2
					c-0.5-0.3-1.5-0.7-3.2-1.3L393.1,286z M589.5,286c-0.1,0.9-0.2,1.7-0.3,2.6c-0.3,3.3-0.6,6.5-0.7,9.3c-0.2,2.9-0.3,5.1-0.3,6.9
					c0,2.3,0,4.5,0.1,6.3c0.1-0.2,0.2-0.4,0.3-0.5c1.1-2,2.2-4.1,3.1-6.3c0.9-2.2,1.6-4.5,2.1-6.7c0.5-2,0.7-3.9,0.7-5.7
					c0-1.9-0.1-3-0.3-3.6c0-0.2-0.1-0.3-0.1-0.4c-0.1,0-0.2-0.1-0.3-0.2c-0.5-0.3-1.5-0.7-3.2-1.3L589.5,286z M536.9,294.6
					c-0.7,1.6-1.4,3.4-2.2,5.4c-0.8,1.9-1.6,3.8-2.4,5.8c0,0,0,0.1,0,0.1c1.2-1.3,2.4-2.6,3.7-4.1c0.7-0.8,1.4-1.6,2.1-2.5
					c0.2-2.9,0.5-5.8,0.8-8.7c0-0.3,0.1-0.6,0.1-0.9C538.3,291.3,537.7,292.9,536.9,294.6z M257.1,294.6c-0.8,2-1.5,3.8-2.2,5.5
					c2.1-2.6,4.6-5.8,7.4-9.7c0.1-0.1,0.2-0.3,0.2-0.3c0,0,0,0,0,0l0.1-0.1c1-1.6,2-3.2,2.9-4.9c0.2-0.4,0.5-0.9,0.7-1.3
					c-0.1-0.2-0.2-0.5-0.4-0.8c-0.9-1.9-1.5-4.2-1.7-6.6c-0.4,1.3-0.8,2.6-1.2,3.9c-0.8,2.3-1.7,4.7-2.7,7.2
					C259.1,289.8,258.1,292.2,257.1,294.6z"/>
			</g>
			<g>
				<path class="st1" d="M603.8,187.1c2.3,0,4.3,0.3,6.1,0.9c1.8,0.6,3.3,1.5,4.6,2.7c1.3,1.2,2.2,2.8,2.9,4.7c0.7,1.9,1,4.2,1,6.9
					c0,1.5-0.2,3.2-0.7,5.2c-0.5,2-1.3,4.3-2.4,6.9c-1.1,2.6-2.6,5.6-4.4,8.9c-1.8,3.3-4,7.1-6.6,11.4c-2.6,4.3-5.7,9-9.2,14.2
					c-3.5,5.2-7.5,11-12.1,17.4c-0.5,3.5-1.1,7-1.5,10.7c-0.5,3.7-0.9,7.3-1.2,10.7c-0.3,3.4-0.6,6.6-0.8,9.6
					c-0.2,2.9-0.3,5.4-0.3,7.4c0,4.9,0.1,8.8,0.2,11.8c0.1,3,0.4,5.2,0.7,6.8c0.3,1.6,0.7,2.7,1.2,3.2c0.5,0.5,1.1,0.8,1.7,0.8
					c1.4,0,2.8-0.5,4.4-1.6c1.6-1.1,3.1-2.5,4.6-4.3c1.5-1.8,3-3.9,4.4-6.3c1.4-2.4,2.6-4.9,3.7-7.5c1.1-2.6,1.9-5.3,2.5-8
					c0.6-2.7,1-5.3,1-7.7c0-2.2-0.1-4-0.5-5.5c-0.3-1.5-0.9-2.8-1.6-3.9c-0.8-1.1-1.8-2-3.2-2.7c-1.3-0.7-3-1.4-5-2
					c-0.3-1-0.4-2-0.5-2.8c-0.1-0.8-0.2-1.7-0.2-2.6c0-2.9,0.6-5.7,1.8-8.4c1.2-2.7,2.8-5.1,4.8-7.2c2-2.1,4.4-3.8,7.1-5
					c2.7-1.3,5.5-1.9,8.5-1.9c6,0,10.6,1.9,13.6,5.8c3,3.9,4.5,10.1,4.5,18.5c0,4.3-0.4,8.7-1.3,13.3c-0.9,4.6-2.1,9.1-3.7,13.7
					c-1.6,4.6-3.5,9-5.8,13.4c-2.3,4.4-4.8,8.5-7.5,12.4c-2.8,3.9-5.7,7.5-8.9,10.8c-3.2,3.3-6.5,6.1-9.9,8.5
					c-3.4,2.4-7,4.2-10.6,5.6c-3.6,1.4-7.3,2-10.9,2c-4.5,0-8.5-0.8-12-2.4c-3.5-1.6-6.3-4-8.7-7.3c-2.3-3.3-4.1-7.5-5.3-12.6
					c-0.4-1.7-0.7-3.6-1-5.6c-2.3,2.5-4.6,4.9-7.1,7.3c-3,2.8-6.1,5.5-9.4,7.9c-3.3,2.5-6.5,4.7-9.7,6.6c-3.2,1.9-6.3,3.4-9.4,4.5
					c-3,1.1-5.9,1.6-8.4,1.6c-3.3,0-6-0.4-8.3-1.1c-2.3-0.7-4.1-1.8-5.5-3.3c-1.4-1.5-2.4-3.4-3-5.7c-0.6-2.3-0.9-5-0.9-8.1
					c0-2.5,0.3-5.1,0.8-7.9c0.6-2.8,1.3-5.6,2.1-8.5c0.8-2.9,1.8-5.7,2.8-8.4c1-2.7,1.9-5.3,2.8-7.6c0.8-2.3,1.5-4.3,2.1-6
					c0.6-1.7,0.9-3,0.9-3.8c0-1.8-0.9-2.7-2.7-2.7c-0.5,0-1.3,0.2-2.4,0.7c-1.1,0.5-2.5,1.3-4.1,2.5c-1.6,1.2-3.4,2.8-5.4,4.8
					c-2,2-4,4.5-6.2,7.5c-0.8,4.3-1.5,8.2-2,11.8c-0.6,3.6-1,7-1.4,10.2c-0.4,3.3-0.7,6.6-1,9.9c-0.3,3.3-0.5,6.8-0.7,10.6
					c-0.5,0.5-1.1,1-1.6,1.4c-0.5,0.4-1.1,0.7-1.8,0.9c-0.7,0.2-1.4,0.4-2.3,0.5c-0.9,0.1-2,0.1-3.3,0.1c-3.1,0-6-0.7-8.7-2.1
					c-2.7-1.4-5-3.2-6.9-5.5c-1.9-2.3-3.5-5-4.6-8.1c-1.1-3.1-1.7-6.3-1.8-9.6c0-4.3,0.5-8.7,1.4-13.3c0.9-4.6,2.3-9.5,4.3-14.7
					c-0.9-2.1-1.5-4.4-1.8-6.8c-0.3-2.4-0.4-4.8-0.4-7c0-2.2,0.5-4.6,1.5-7.3c1-2.7,2.4-5.4,4.1-8.1c1.7-2.7,3.7-5.3,6-7.9
					c2.3-2.6,4.7-4.8,7.2-6.8c2.5-2,5-3.6,7.6-4.8c2.6-1.2,5-1.8,7.3-1.8c1.9,0,3.5,0.2,4.8,0.5c1.2,0.3,2.2,0.9,2.9,1.7
					c0.7,0.8,1.2,1.7,1.5,2.9c0.3,1.2,0.4,2.6,0.4,4.3c0,1.4-0.2,3.3-0.5,5.8c-0.4,2.5-0.9,5.3-1.6,8.2c-0.7,3-1.7,6.1-2.8,9.3
					c-1.1,3.2-2.4,6.1-3.9,8.9c4.1-7.1,8.1-13,12-17.9c3.9-4.9,7.7-8.8,11.2-11.8c3.6-3,6.9-5.2,10-6.6c3.1-1.3,5.9-2,8.3-2
					c2.6,0,4.8,0.4,6.8,1.2c1.9,0.8,3.5,1.9,4.8,3.3c1.3,1.4,2.3,3,2.9,4.9c0.6,1.9,1,3.9,1,6.1c0,3-0.5,6.5-1.5,10.5
					c-1,4-2.7,8.7-5,14.1c-0.7,1.6-1.4,3.4-2.2,5.3c-0.8,1.9-1.6,3.9-2.5,5.9c-0.8,2-1.6,4-2.4,6c-0.8,2-1.5,3.9-2.1,5.6
					s-1.1,3.4-1.5,4.8c-0.4,1.5-0.5,2.7-0.5,3.6c0,1.2,0.3,2.1,0.8,2.6c0.5,0.5,1.3,0.7,2.4,0.7c1.1,0,2.8-0.7,5-2.1
					c2.2-1.4,4.8-3.4,7.7-6.1c2.9-2.7,6-5.9,9.5-9.8c1.4-1.6,2.7-3.3,4.1-5c0.2-3.7,0.5-7.3,1-11.1c0.9-7.3,2.1-14.5,3.6-21.7
					c1.6-7.2,3.5-14.3,5.7-21.1c2.2-6.9,4.6-13.4,7.3-19.6c2.7-6.2,5.6-11.8,8.7-17c3.1-5.1,6.3-9.6,9.7-13.3
					c3.3-3.7,6.8-6.6,10.3-8.7C596.6,188.1,600.2,187.1,603.8,187.1 M407.4,187.1c2.3,0,4.3,0.3,6.1,0.9c1.8,0.6,3.3,1.5,4.6,2.7
					c1.3,1.2,2.2,2.8,2.9,4.7c0.7,1.9,1,4.2,1,6.9c0,1.5-0.2,3.2-0.7,5.2c-0.5,2-1.3,4.3-2.4,6.9c-1.1,2.6-2.6,5.6-4.3,8.9
					c-1.8,3.3-4,7.1-6.6,11.4c-2.6,4.3-5.7,9-9.2,14.2c-3.5,5.2-7.5,11-12.1,17.4c-0.5,3.5-1.1,7-1.5,10.7
					c-0.5,3.7-0.9,7.3-1.2,10.7c-0.3,3.4-0.6,6.6-0.8,9.6c-0.2,2.9-0.3,5.4-0.3,7.4c0,4.9,0.1,8.8,0.2,11.8c0.1,3,0.4,5.2,0.7,6.8
					c0.3,1.6,0.7,2.7,1.2,3.2c0.5,0.5,1.1,0.8,1.7,0.8c1.4,0,2.8-0.5,4.4-1.6c1.5-1.1,3.1-2.5,4.6-4.3c1.5-1.8,3-3.9,4.4-6.3
					c1.4-2.4,2.6-4.9,3.7-7.5c1.1-2.6,1.9-5.3,2.5-8c0.6-2.7,1-5.3,1-7.7c0-2.2-0.2-4-0.5-5.5c-0.3-1.5-0.9-2.8-1.6-3.9
					c-0.8-1.1-1.8-2-3.2-2.7c-1.3-0.7-3-1.4-5-2c-0.3-1-0.4-2-0.5-2.8c-0.1-0.8-0.2-1.7-0.2-2.6c0-2.9,0.6-5.7,1.8-8.4
					c1.2-2.7,2.8-5.1,4.8-7.2c2-2.1,4.4-3.8,7.1-5c2.7-1.3,5.5-1.9,8.5-1.9c6,0,10.6,1.9,13.6,5.8c3,3.9,4.5,10.1,4.5,18.5
					c0,4.3-0.4,8.7-1.3,13.3c-0.9,4.6-2.1,9.1-3.7,13.7c-1.6,4.6-3.5,9-5.8,13.4c-2.3,4.4-4.8,8.5-7.5,12.4
					c-2.7,3.9-5.7,7.5-8.9,10.8c-3.2,3.3-6.5,6.1-9.9,8.5c-3.4,2.4-7,4.2-10.6,5.6c-3.6,1.4-7.3,2-11,2c-4.5,0-8.5-0.8-12-2.4
					c-3.5-1.6-6.3-4-8.7-7.3c-2.3-3.3-4.1-7.5-5.3-12.6c-0.4-1.6-0.7-3.3-0.9-5.1c-2.2,2.5-4.5,4.9-6.9,7.3c-3,2.9-6.2,5.7-9.5,8.3
					c-3.3,2.6-6.6,4.9-9.8,6.9c-3.2,2-6.4,3.5-9.4,4.7c-3,1.2-5.9,1.7-8.4,1.7c-6.8,0-12.1-1.5-15.7-4.6c-3.7-3.1-5.5-7.8-5.5-14.2
					c0-2.5,0.3-5,0.8-7.7c0.5-2.6,1.2-5.3,2-7.9c0.8-2.6,1.7-5.1,2.6-7.6c1-2.5,1.8-4.8,2.6-6.9c0.8-2.1,1.5-4,2-5.7
					c0.6-1.6,0.8-3,0.8-3.9c0-1.4-0.6-2.4-1.8-3.3c-1.2-0.8-3.1-1.8-5.5-2.8c-1.8,3.3-3.4,6.3-4.9,9c-1.5,2.7-3.1,5.2-4.6,7.5
					c-1.5,2.3-3.1,4.5-4.7,6.6c-0.1,0.1-0.1,0.2-0.2,0.3c-0.3,0.6-0.6,1.1-1,1.7c-1.8,2.8-4,5.6-6.5,8.6c-2.5,3-5.2,5.8-8,8.6
					c-2.9,2.8-5.9,5.5-9,7.9c-3.1,2.5-6.3,4.7-9.4,6.6c-3.1,1.9-6.2,3.4-9.1,4.5c-3,1.1-5.7,1.6-8.3,1.6c-3.3,0-6-0.4-8.3-1.1
					c-2.3-0.7-4.1-1.8-5.5-3.3c-1.4-1.5-2.4-3.4-3-5.7c-0.6-2.3-0.9-5-0.9-8.1c0-2.5,0.2-4.9,0.5-7.4c0-0.1,0.1-0.3,0.1-0.5
					c-1.4,1.4-2.7,2.9-4.1,4.3c-2.8,2.7-5.7,5.2-8.7,7.6c-3,2.4-5.9,4.5-8.8,6.3c-2.9,1.8-5.6,3.2-8.2,4.3c-2.6,1.1-4.9,1.6-6.9,1.6
					c-2.4,0-4.7-0.3-6.7-0.8c-2-0.6-3.7-1.5-5.1-3c-1.4-1.4-2.5-3.3-3.2-5.6c-0.8-2.4-1.1-5.3-1.1-8.9c0-1.2,0.1-2.6,0.2-4
					c0.1-1.5,0.3-3,0.5-4.7c-1.8,5.1-3.7,9.3-5.9,12.6c-2.1,3.3-4.3,6-6.5,7.9c-2.2,2-4.4,3.4-6.6,4.2c-2.2,0.8-4.3,1.2-6.2,1.2
					c-3.2,0-6.2-0.7-8.9-2c-2.7-1.3-5.1-3.3-7-5.8c-2-2.6-3.5-5.8-4.6-9.7c-1.1-3.9-1.7-8.3-1.7-13.4c0-5.6,0.7-11.2,2.2-16.8
					c1.4-5.6,3.4-10.9,5.9-16c2.5-5.1,5.4-9.8,8.7-14.2c3.3-4.4,6.8-8.2,10.5-11.4c3.7-3.2,7.5-5.7,11.5-7.6
					c3.9-1.8,7.8-2.8,11.5-2.8c1.6,0,2.8,0.1,3.7,0.4c0.9,0.2,1.6,0.6,2.1,1.2l0.7-13c0.9-1,2-1.7,3.4-2.2c1.4-0.5,2.9-0.7,4.4-0.7
					c3.8,0,7.2,0.6,10.1,1.7c2.9,1.2,5.4,2.6,7.4,4.4c2,1.8,3.5,3.7,4.5,5.8c1,2.1,1.5,4.2,1.5,6.1c0,1.5-0.2,3.5-0.6,6.1
					c-0.4,2.6-1,5.5-1.9,8.6c-2,7-3.6,13.2-5,18.6c-1.4,5.3-2.5,10-3.3,13.9c-0.9,3.9-1.5,7.1-1.9,9.7c-0.4,2.5-0.6,4.6-0.6,6
					c0,1.1,0.1,2,0.2,2.7c0.1,0.7,0.3,1.2,0.5,1.6c0.2,0.4,0.5,0.6,0.9,0.7c0.3,0.1,0.7,0.2,1.2,0.2c1.1,0,2.7-0.5,4.6-1.6
					c2-1.1,4.3-2.8,6.9-5.1c2.6-2.3,5.5-5.3,8.7-8.9c2.5-2.8,5.2-6.2,8-10c-0.1-0.5-0.2-1-0.3-1.6c-0.3-2.4-0.4-4.8-0.4-7.1
					c0-2.2,0.5-4.6,1.5-7.3c1-2.7,2.4-5.4,4.2-8.1c1.7-2.7,3.8-5.3,6-7.9c2.3-2.6,4.7-4.8,7.2-6.8c2.5-2,5-3.6,7.6-4.8
					c2.6-1.2,5-1.8,7.3-1.8c2.6,0,4.6,0.3,6.1,1c1.5,0.7,2.6,1.6,3.4,2.9c0.8,1.2,1.2,2.7,1.4,4.5c0.2,1.8,0.3,3.7,0.3,5.9
					c0,1.5-0.2,3.1-0.7,5c-0.4,1.9-1,3.9-1.7,6c-0.7,2.1-1.6,4.3-2.5,6.6c-0.9,2.3-1.9,4.6-2.9,7c-1.6,3.9-2.9,7.2-4.1,10.1
					c-1.1,2.9-2.1,5.4-2.9,7.6c-0.8,2.2-1.3,4.1-1.7,5.7c-0.4,1.6-0.5,3-0.5,4.3c0,1.2,0.3,2.1,0.8,2.6c0.5,0.5,1.3,0.8,2.3,0.8
					c0.8,0,2-0.5,3.6-1.4c1.6-1,3.7-2.6,6-4.8c2.4-2.2,5.1-5.1,8.3-8.8c2.7-3.2,5.8-7.1,9-11.7c0.1-0.2,0.3-0.4,0.4-0.7
					c1.1-1.8,2.2-3.6,3.3-5.5c1-1.9,2-4,2.9-6.3c-0.9-1-1.7-2.3-2.4-3.7c-0.7-1.5-1-3.3-1-5.4c0-2.6,0.6-5.4,1.8-8.2
					c1.2-2.9,2.8-5.7,4.8-8.5c2-2.8,4.2-5.5,6.7-8c2.5-2.5,5.1-4.8,7.8-6.7c2.7-1.9,5.3-3.5,7.9-4.6c2.6-1.1,4.9-1.7,7-1.7
					c1.9,0,3.6,0.2,5.2,0.7c1.6,0.4,2.9,1.1,4,1.9c1.1,0.8,2,1.8,2.6,3c0.6,1.2,0.9,2.5,0.9,4.1c0,1.6-0.2,3.1-0.7,4.5
					c-2.7,1.5-5.2,3.1-7.4,4.8c-2.2,1.7-4.1,3.9-5.6,6.4c1.2,0.7,2.8,1.3,4.7,2.1c1.9,0.7,3.9,1.4,5.8,1.9c3.3,0.9,6,1.9,8,2.8
					c2.1,0.9,3.7,1.9,4.9,2.8c1.2,1,2,2,2.4,3.1c0.4,1.1,0.6,2.3,0.6,3.7c0,2.3-0.6,4.8-1.7,7.5c-1.1,2.7-2.6,5.9-4.4,9.5
					c-1.3,2.5-2.5,5.1-3.7,7.7c-1.2,2.6-2.2,5.1-3.1,7.5c-0.9,2.4-1.6,4.6-2.1,6.6c-0.5,2-0.8,3.7-0.8,5.1c0,1.6,0.3,2.9,0.8,3.9
					c0.5,1,1.5,1.5,3,1.5c1.1,0,2.3-0.4,3.9-1.1c1.5-0.7,3.2-1.8,5-3.2c1.8-1.4,3.8-3,5.9-5c2.1-1.9,4.2-4.1,6.4-6.5
					c2.1-2.4,4.3-5,6.4-7.8c0.1-0.1,0.2-0.2,0.3-0.4c0.2-3.7,0.5-7.5,1-11.3c0.9-7.3,2.1-14.5,3.6-21.7c1.6-7.2,3.5-14.3,5.7-21.1
					c2.2-6.9,4.6-13.4,7.3-19.6c2.7-6.2,5.6-11.8,8.7-17c3.1-5.1,6.3-9.6,9.7-13.3c3.3-3.7,6.8-6.6,10.3-8.7
					C400.2,188.1,403.8,187.1,407.4,187.1 M145.4,319.5c1.6,0,3.1-0.5,4.6-1.5c1.5-1,3-2.4,4.3-4.1l7.1-46.5
					c-2.8,1.8-5.5,4.2-8.1,7.3c-2.6,3.1-5,6.5-7,10.4s-3.7,8-4.9,12.3c-1.2,4.3-1.9,8.7-1.9,13c0,2.1,0.2,3.7,0.5,4.9
					c0.3,1.2,0.7,2.1,1.3,2.8c0.5,0.6,1.1,1,1.9,1.2C143.8,319.4,144.6,319.5,145.4,319.5 M253.6,193.1c1.5,0,3,0.3,4.5,0.8
					c1.5,0.5,3,1.2,4.4,2.1c1.4,0.9,2.7,1.8,4,3c1.2,1.1,2.3,2.3,3.2,3.6c0.9,1.2,1.6,2.5,2.2,3.8c0.5,1.3,0.8,2.5,0.8,3.7
					c0,1.3-0.3,2.9-0.8,4.7c-0.5,1.8-1.4,3.8-2.6,6c-1.2,2.3-2.8,4.8-4.6,7.5c-1.9,2.8-4.2,5.8-6.9,9c-2.2,0-4.2-0.4-6-1.2
					c-1.8-0.8-3.4-2-4.7-3.7c-1.3-1.6-2.3-3.6-3.1-6.1c-0.8-2.4-1.1-5.2-1.1-8.5c0-4.6,0.2-8.4,0.7-11.5c0.5-3.1,1.2-5.7,2.1-7.6
					c0.9-1.9,2-3.3,3.4-4.2C250.3,193.5,251.9,193.1,253.6,193.1 M603.8,169c-6.8,0-13.5,1.9-19.8,5.6c-5.1,3-10.1,7.1-14.6,12.2
					c-4.1,4.6-8,10-11.7,16.1c-3.5,5.8-6.8,12.2-9.7,19.1c-2.5,5.7-4.8,11.7-6.9,17.9c-2.3-1.8-4.9-3.3-7.8-4.5
					c-4.1-1.7-8.7-2.5-13.6-2.5c-4.9,0-10.1,1.2-15.5,3.5c-1.6,0.7-3.2,1.5-4.8,2.4c-0.4-0.4-0.7-0.9-1.1-1.3
					c-3-3.2-6.9-5.5-11.3-6.8c-2.9-0.8-6-1.2-9.6-1.2c-4.9,0-10,1.2-14.9,3.5c-3.8,1.8-7.5,4.1-11.1,7c-1.7,1.4-3.4,2.8-5.1,4.4
					c0,0,0,0-0.1-0.1c-3.2-4.1-8.5-8.9-16.6-11.2c0.3-0.5,0.5-1,0.8-1.4c2.1-3.8,3.7-7.2,5-10.4c1.5-3.6,2.6-6.8,3.3-9.7
					c0.8-3.3,1.2-6.4,1.2-9.4c0-4.8-0.7-9.1-2-12.9c-1.6-4.5-4.1-8.4-7.3-11.6c-3.3-3.2-7.1-5.5-11.6-6.9c-3.5-1.2-7.5-1.8-11.7-1.8
					c-6.8,0-13.5,1.9-19.8,5.6c-5.1,3-10.1,7.2-14.6,12.2c-4.1,4.5-8,10-11.7,16.1c-3.5,5.8-6.7,12.2-9.7,19.1
					c-2.9,6.7-5.6,13.8-8,21.3c-1.2,3.8-2.4,7.7-3.4,11.6c-0.5-0.3-0.9-0.6-1.4-0.9c0.7-2.7,1-5.5,1-8.4c0-4.5-1-8.6-3-12.4l0,0l0,0
					c-1.9-3.6-4.5-6.7-7.8-9.1c-2.9-2.1-6.2-3.7-9.8-4.7l0,0l0,0c-3.1-0.9-6.5-1.3-10-1.3c-4.6,0-9.4,1.1-14.3,3.3l0,0l0,0
					c-2.5,1.1-5,2.5-7.5,4.1c0.9-1.9,1.5-3.7,2.1-5.4c1.1-3.5,1.6-6.9,1.6-10c0-3.5-0.7-7.1-2.2-10.6c-1.1-2.6-2.5-5.1-4.2-7.5
					c-1.6-2.2-3.4-4.3-5.5-6.2l0,0l0,0c-2.1-2-4.4-3.7-6.9-5.2c-2.5-1.5-5.2-2.8-8-3.7c-3.3-1.1-6.8-1.7-10.3-1.7
					c-5.2,0-10.2,1.4-14.4,4.2c-4.3,2.7-7.6,6.7-10,11.7c-1.7,3.6-2.9,7.7-3.6,12.6c-0.6,4.1-0.9,8.7-0.9,14.2c0,5,0.6,9.7,1.9,13.8
					c0.7,2.4,1.6,4.6,2.7,6.6c-3.5,1.7-6.9,3.9-10.1,6.5c-2.4,1.9-4.7,4-6.9,6.2c-0.5-3.2-1.5-6.5-3-9.7c-2.1-4.3-5-8.2-8.8-11.6
					c-3.6-3.2-7.8-5.7-12.7-7.7c-5.1-2-10.7-3-16.8-3c-3.5,0-7,0.6-10.3,1.7c-4.4,1.5-8.1,3.9-11,7.3l-4.2,4.7l-0.1,2.2
					c-2.6,0.7-5.2,1.7-7.8,2.9c-5.4,2.5-10.7,6-15.6,10.3c-4.7,4.1-9.1,8.8-13.1,14.2c-4,5.3-7.5,11.1-10.5,17.2
					c-3,6.1-5.4,12.6-7.1,19.4c-1.8,7-2.7,14.2-2.7,21.3c0,6.7,0.8,12.9,2.4,18.4c1.7,6,4.3,11.3,7.6,15.6
					c3.7,4.9,8.3,8.6,13.6,11.2c5.1,2.5,10.8,3.8,16.7,3.8c4.1,0,8.2-0.8,12.4-2.3c2.2-0.8,4.4-1.9,6.6-3.2c3,2.3,6.4,4,10.2,5.1
					c3.5,1,7.4,1.5,11.5,1.5c4.3,0,8.9-1,13.7-2.9c3.6-1.4,7.3-3.4,11-5.7c0.4-0.3,0.8-0.5,1.3-0.8c0.3,0.3,0.6,0.7,0.9,1l0,0l0,0
					c3.5,3.8,7.9,6.6,13.2,8.2c4.1,1.3,8.6,2,13.8,2c4.7,0,9.6-0.9,14.6-2.8c4.1-1.5,8.2-3.5,12.3-6c3.7-2.3,7.5-4.9,11.2-7.9
					c2.6-2.1,5.2-4.3,7.7-6.6c2.3,7.8,6.6,12.9,10.4,16c7,5.9,16.2,8.8,27.3,8.8c4.8,0,9.8-1,14.9-2.9c4.1-1.6,8.2-3.6,12.4-6.1
					c3.4-2.1,6.9-4.5,10.3-7.1c3.8,4.6,8.5,8.1,13.8,10.6c5.9,2.7,12.4,4,19.5,4c5.8,0,11.6-1.1,17.2-3.2c5-1.9,9.9-4.5,14.6-7.7
					c4.4-3,8.6-6.7,12.6-10.8c1.4-1.5,2.9-3.1,4.2-4.7c1.7,3.7,3.8,7,6.3,10c3.5,4.1,7.6,7.4,12.4,9.9c5.2,2.7,11,4.1,17,4.1
					c1.8,0,3.5-0.1,5-0.2l0.1,0l0.1,0c2.2-0.2,4.2-0.7,6.2-1.3l0,0l0,0c2.3-0.8,4.4-1.8,6.3-3.2c2.8,2.2,6,3.9,9.6,5
					c4.1,1.3,8.6,2,13.8,2c4.6,0,9.5-0.9,14.5-2.7c4.1-1.5,8.3-3.5,12.5-5.9c3.3-2,6.7-4.2,10-6.7c3.9,4.9,8.8,8.7,14.4,11.3
					c5.8,2.7,12.4,4,19.5,4c5.8,0,11.6-1.1,17.2-3.2c5-1.9,9.9-4.5,14.6-7.7c4.4-3,8.6-6.7,12.6-10.8c3.8-3.9,7.4-8.3,10.6-12.9
					c3.2-4.6,6.2-9.4,8.8-14.5c2.6-5.1,4.9-10.4,6.8-15.7c1.9-5.4,3.4-10.8,4.4-16.3c1.1-5.7,1.6-11.3,1.6-16.7
					c0-12.7-2.7-22.4-8.4-29.6c-3.2-4.1-8.5-8.9-16.6-11.2c0.3-0.5,0.5-1,0.8-1.4c2.1-3.8,3.7-7.2,5-10.4c1.5-3.6,2.6-6.8,3.3-9.7
					c0.8-3.4,1.2-6.5,1.2-9.4c0-4.7-0.7-9.1-2-12.9c-1.6-4.5-4.1-8.5-7.3-11.6c-3.2-3.2-7.1-5.5-11.5-6.9
					C611.9,169.6,607.9,169,603.8,169L603.8,169z"/>
			</g>
		</g>
	</g>
	<path class="st2" d="M339,311.5c0,0,11.2-12.2,12.6-14.9c1-1.9,32.3,1.7-7,41.6"/>
	<g>
		
			<image style="overflow:visible;opacity:0.75;enable-background:new    ;" width="36" height="33" xlink:href="F038E499.png"  transform="matrix(0.9697 0 0 0.9697 326.3608 338.3154)">
		</image>
		<g>
			<path class="st3" d="M341.8,358.8c0,0,4.6-3.3,8.5-7s-5.1-4.3-5.1-4.3l-9.9,8.6C335.4,356.1,335.1,363.7,341.8,358.8z"/>
		</g>
	</g>
	<g>
		
			<image style="overflow:visible;opacity:0.75;enable-background:new    ;" width="30" height="45" xlink:href="F038E49F.png"  transform="matrix(0.9667 0 0 0.9667 321.3154 227.5654)">
		</image>
		<g>
			<path class="st3" d="M338,256.9c0,0,4.9-6.1,0.3-18.7c-2-5.7-7,4.4-7,4.4l-0.3,14.7C331,257.3,335.7,265.9,338,256.9z"/>
		</g>
	</g>
	<path class="st1" d="M331.2,365.9c3.1-1.8,11.2-6,20.7-15.4c4.1-4.1,4.5-5.3,4.5-5.3l-6.2-9.1l-24.6,15l-3.6,10.7L331.2,365.9z"/>
	<path class="st1" d="M333.3,228.2c0,0,2.6,3.1,4.3,6.6s4.5,12.4,2.8,20.6c-1.6,8.1-5.6,15.8-5.6,15.8l-14.8-6.3l1.2-12.9l5.1-18.2
		L333.3,228.2z"/>
	<g>
		<path class="st4" d="M633.1,361.4v6.8H632v-6.8h-2.4v-1h5.8l0.2,1H633.1z M644.2,368.1l-0.4-5.9l-2.4,6h-0.9l-2.4-6l-0.5,5.9h-1
			l0.6-7.7h1.3l2.5,6.3l2.5-6.3h1.2l0.6,7.7H644.2z"/>
	</g>
</g>
</svg>
